#!OML:ASF X:\für Bonn\!DataBase\2005_08_10_Bjorn_Final\c3d\bjorn.ASF
:FULLY-SPECIFIED
:DEGREES
254
root 0.850551 4.80387 21.8247 -244.62 -5.54636 -539.619
lowerback 43.5984 4.19474 12.4511
upperback 24.0288 -1.22931 4.5669
thorax 7.36717 -4.79205 -1.64361
lowerneck -6.55358 1.13587 6.05267
upperneck 26.1819 1.21496 -10.3105
head 9.36208 -0.643253 -4.64788
rclavicle 1.35174e-014 -1.11319e-014
rhumerus -65.8449 -40.8193 -51.9607
rradius 22.6379
rwrist -17.326
rhand -16.5453 -5.19759
rfingers 7.12502
rthumb 9.67403 -34.9554
lclavicle 1.35174e-014 -1.11319e-014
lhumerus -47.3386 49.8965 51.9347
lradius 8.54094
lwrist -42.1707
lhand -28.4173 -358.007
lfingers 7.12502
lthumb -1.78891 31.9655
rfemur -64.4195 -44.5185 -8.95723
rtibia 134.06
rfoot 2.57682 32.5017
rtoes -4.75743
lfemur -43.4256 51.6173 35.3212
ltibia 143.817
lfoot -25.2985 -32.4401
ltoes -18.1243
255
root 0.826517 4.7992 21.8411 -244.671 -5.43335 -539.576
lowerback 43.6037 4.24507 12.4251
upperback 24.04 -1.19545 4.61734
thorax 7.38094 -4.79321 -1.58825
lowerneck -6.75061 1.18411 5.84826
upperneck 25.9112 1.38082 -10.4702
head 9.31879 -0.588097 -4.64132
rclavicle 4.90004e-014 3.65764e-014
rhumerus -65.7056 -40.8008 -51.8119
rradius 22.5974
rwrist -17.1608
rhand -16.5052 -5.30679
rfingers 7.12502
rthumb 9.71275 -35.0628
lclavicle 4.90004e-014 3.65764e-014
lhumerus -46.6478 49.2003 52.9719
lradius 8.48136
lwrist -41.5746
lhand -28.4738 -357.788
lfingers 7.12502
lthumb -1.84347 32.1841
rfemur -65.2964 -42.5111 -7.27859
rtibia 133.053
rfoot 3.34525 31.3984
rtoes -6.3553
lfemur -43.5047 51.5984 35.1389
ltibia 143.837
lfoot -25.2268 -32.2595
ltoes -17.9294
256
root 0.802069 4.79215 21.854 -244.723 -5.31488 -539.564
lowerback 43.6818 4.29407 12.3631
upperback 24.0011 -1.14673 4.65109
thorax 7.31192 -4.78747 -1.52744
lowerneck -6.86705 1.23227 5.65168
upperneck 25.6703 1.53595 -10.6334
head 9.27002 -0.540686 -4.63935
rclavicle -4.13472e-014 7.95139e-015
rhumerus -65.6108 -40.6981 -51.6836
rradius 22.5746
rwrist -17.0158
rhand -16.4728 -5.42703
rfingers 7.12502
rthumb 9.74401 -35.1816
lclavicle -4.13472e-014 7.95139e-015
lhumerus -46.171 48.4469 53.8439
lradius 8.44213
lwrist -41.0308
lhand -28.5381 -357.57
lfingers 7.12502
lthumb -1.9056 32.4017
rfemur -65.9881 -40.7015 -5.86198
rtibia 132.079
rfoot 3.94749 30.3878
rtoes -7.86479
lfemur -43.4767 51.6448 35.1032
ltibia 143.885
lfoot -25.1866 -32.1084
ltoes -17.7286
257
root 0.778693 4.78477 21.8649 -244.743 -5.18886 -539.547
lowerback 43.7564 4.33754 12.3047
upperback 23.9379 -1.08544 4.67685
thorax 7.21486 -4.76765 -1.47752
lowerneck -6.9824 1.26883 5.43825
upperneck 25.4772 1.65693 -10.7237
head 9.23468 -0.505266 -4.61391
rclavicle -4.64162e-014 -5.56597e-015
rhumerus -65.5586 -40.5643 -51.5512
rradius 22.5506
rwrist -16.9089
rhand -16.4221 -5.50186
rfingers 7.12502
rthumb 9.79291 -35.2542
lclavicle -4.64162e-014 -5.56597e-015
lhumerus -45.7624 47.6538 54.6638
lradius 8.42221
lwrist -40.5141
lhand -28.5142 -357.29
lfingers 7.12502
lthumb -1.88253 32.6811
rfemur -66.5663 -39.1153 -4.60394
rtibia 131.147
rfoot 4.44239 29.4224
rtoes -9.11165
lfemur -43.4941 51.7206 35.0673
ltibia 143.937
lfoot -25.1593 -31.9703
ltoes -17.5077
258
root 0.755038 4.77553 21.8736 -244.749 -5.06643 -539.522
lowerback 43.795 4.37701 12.2416
upperback 23.9028 -1.0511 4.69992
thorax 7.15898 -4.76451 -1.42583
lowerneck -7.12332 1.30965 5.23189
upperneck 25.2674 1.78563 -10.821
head 9.19933 -0.465036 -4.59085
rclavicle -1.02374e-014 -2.06736e-014
rhumerus -65.4127 -40.4328 -51.5073
rradius 22.5565
rwrist -16.8559
rhand -16.4208 -5.60687
rfingers 7.12502
rthumb 9.79423 -35.3591
lclavicle -1.02374e-014 -2.06736e-014
lhumerus -45.3841 46.9002 55.4411
lradius 8.40944
lwrist -39.9655
lhand -28.4786 -357.125
lfingers 7.12502
lthumb -1.84813 32.8464
rfemur -67.017 -37.8286 -3.57223
rtibia 130.31
rfoot 4.9097 28.5943
rtoes -9.72196
lfemur -43.5648 51.7964 35.0074
ltibia 144.015
lfoot -25.1234 -31.8079
ltoes -17.4378
259
root 0.731058 4.76611 21.8796 -244.787 -4.89861 -539.502
lowerback 43.8859 4.40969 12.199
upperback 23.8503 -1.01498 4.72802
thorax 7.07182 -4.76366 -1.37543
lowerneck -7.15845 1.34873 4.98772
upperneck 24.9887 1.90718 -10.8792
head 9.11853 -0.423356 -4.54356
rclavicle 4.85035e-014 -1.90833e-014
rhumerus -65.3288 -40.2765 -51.3916
rradius 22.5504
rwrist -16.7445
rhand -16.3914 -5.67945
rfingers 7.12502
rthumb 9.82257 -35.4303
lclavicle 4.85035e-014 -1.90833e-014
lhumerus -45.1608 46.1233 56.1136
lradius 8.46791
lwrist -39.3218
lhand -28.4487 -356.954
lfingers 7.12502
lthumb -1.81926 33.0177
rfemur -67.299 -36.7568 -2.72756
rtibia 129.564
rfoot 5.41334 27.86
rtoes -9.39414
lfemur -43.458 51.9382 35.201
ltibia 144.107
lfoot -25.2858 -31.6401
ltoes -17.5938
260
root 0.707077 4.75512 21.881 -244.841 -4.67759 -539.499
lowerback 43.974 4.45363 12.2017
upperback 23.823 -0.965398 4.73887
thorax 7.02105 -4.75372 -1.37348
lowerneck -7.2044 1.37787 4.81445
upperneck 24.7118 2.00384 -10.9359
head 9.03879 -0.385073 -4.51083
rclavicle 4.67144e-014 -1.27222e-014
rhumerus -65.2443 -40.1306 -51.354
rradius 22.5904
rwrist -16.7004
rhand -16.3564 -5.80231
rfingers 7.12502
rthumb 9.85628 -35.5516
lclavicle 4.67144e-014 -1.27222e-014
lhumerus -44.9651 45.3029 56.7229
lradius 8.58709
lwrist -38.6473
lhand -28.385 -356.845
lfingers 7.12502
lthumb -1.75771 33.1277
rfemur -67.4884 -35.8003 -1.9364
rtibia 128.874
rfoot 5.87336 27.1589
rtoes -8.66277
lfemur -43.0426 52.2659 35.8291
ltibia 144.21
lfoot -25.5445 -31.6034
ltoes -17.5703
261
root 0.682456 4.74542 21.8819 -244.907 -4.44607 -539.48
lowerback 44.0723 4.48417 12.2172
upperback 23.7949 -0.933018 4.76191
thorax 6.96803 -4.75555 -1.35959
lowerneck -7.21471 1.41492 4.62626
upperneck 24.3981 2.11388 -11.0026
head 8.94098 -0.340723 -4.47607
rclavicle 1.64991e-014 3.10104e-014
rhumerus -65.1613 -39.9842 -51.2741
rradius 22.6231
rwrist -16.5677
rhand -16.312 -5.89106
rfingers 7.12502
rthumb 9.89917 -35.6383
lclavicle 1.64991e-014 3.10104e-014
lhumerus -44.8562 44.4934 57.2888
lradius 8.73419
lwrist -37.877
lhand -28.2695 -356.801
lfingers 7.12502
lthumb -1.6462 33.1728
rfemur -67.5607 -34.9284 -1.204
rtibia 128.205
rfoot 6.24803 26.4307
rtoes -7.89242
lfemur -42.6008 52.5819 36.4993
ltibia 144.318
lfoot -25.8321 -31.5709
ltoes -17.6741
